<svg width="64" height="64" viewBox="0 0 64 64" fill="none" xmlns="http://www.w3.org/2000/svg">
  <defs>
    <!-- Dégradé moderne -->
    <linearGradient id="modernGradient" x1="0%" y1="0%" x2="100%" y2="100%">
      <stop offset="0%" style="stop-color:#0ea5e9;stop-opacity:1" />
      <stop offset="50%" style="stop-color:#3b82f6;stop-opacity:1" />
      <stop offset="100%" style="stop-color:#6366f1;stop-opacity:1" />
    </linearGradient>
    
    <!-- Dégradé pour l'accent -->
    <linearGradient id="accentGradient" x1="0%" y1="0%" x2="100%" y2="100%">
      <stop offset="0%" style="stop-color:#f97316;stop-opacity:1" />
      <stop offset="100%" style="stop-color:#ef4444;stop-opacity:1" />
    </linearGradient>
    
    <!-- Ombre portée -->
    <filter id="shadow">
      <feDropShadow dx="0" dy="2" stdDeviation="3" flood-color="#000000" flood-opacity="0.1"/>
    </filter>
  </defs>
  
  <!-- Fond principal -->
  <rect width="64" height="64" rx="18" fill="url(#modernGradient)" filter="url(#shadow)"/>
  
  <!-- Forme principale - "P" stylisé -->
  <path d="M18 16 L18 48 M18 16 L32 16 Q40 16 40 24 Q40 32 32 32 L18 32" 
        stroke="white" 
        stroke-width="4" 
        stroke-linecap="round" 
        stroke-linejoin="round" 
        fill="none"/>
  
  <!-- Élément graphique - courbe de tendance -->
  <path d="M42 20 L46 16 L50 18 L54 14" 
        stroke="url(#accentGradient)" 
        stroke-width="3" 
        stroke-linecap="round" 
        fill="none"/>
  
  <!-- Points de données -->
  <circle cx="42" cy="20" r="2" fill="white"/>
  <circle cx="46" cy="16" r="2" fill="white"/>
  <circle cx="50" cy="18" r="2" fill="white"/>
  <circle cx="54" cy="14" r="2" fill="url(#accentGradient)"/>
  
  <!-- Barres de statistiques minimalistes -->
  <rect x="42" y="38" width="2" height="8" fill="white" opacity="0.7" rx="1"/>
  <rect x="46" y="35" width="2" height="11" fill="white" opacity="0.7" rx="1"/>
  <rect x="50" y="40" width="2" height="6" fill="white" opacity="0.7" rx="1"/>
  <rect x="54" y="33" width="2" height="13" fill="url(#accentGradient)" rx="1"/>
  
  <!-- Accent décoratif -->
  <circle cx="56" cy="8" r="1.5" fill="white" opacity="0.3"/>
  <circle cx="52" cy="56" r="1" fill="white" opacity="0.2"/>
</svg>